<?xml version="1.0" encoding="utf-8"?>
<!-- Svg Vector Icons : http://www.onlinewebfonts.com/icon -->
<!DOCTYPE svg PUBLIC "-//W3C//DTD SVG 1.1//EN" "http://www.w3.org/Graphics/SVG/1.1/DTD/svg11.dtd">
<svg version="1.1" xmlns="http://www.w3.org/2000/svg" xmlns:xlink="http://www.w3.org/1999/xlink" x="0px" y="0px" viewBox="0 0 1000 1000" enable-background="new 0 0 1000 1000" xml:space="preserve">
<metadata> Svg Vector Icons : http://www.onlinewebfonts.com/icon </metadata>
<g><path d="M602.4,558.7H397.6C222.2,558.7,80,708.5,80,892.9v21.5c0,75.5,142.1,75.6,317.6,75.6h204.9c175.3,0,317.6-2.8,317.6-75.6v-21.5C920,708.5,777.8,558.7,602.4,558.7L602.4,558.7z M251.9,264.8c0-33.4,6.4-66.7,18.9-97.5c12.4-30.8,30.8-59.1,53.8-82.6C347.5,61,375,42.1,405,29.4c30-12.8,62.5-19.4,95-19.4c32.5,0,64.9,6.6,95,19.4c30,12.7,57.5,31.6,80.5,55.2c23,23.6,41.3,51.8,53.8,82.6c12.4,30.8,18.9,64.2,18.9,97.5s-6.4,66.7-18.9,97.5c-12.4,30.8-30.8,59.1-53.8,82.6c-23,23.6-50.5,42.5-80.5,55.2c-30,12.8-62.5,19.4-95,19.4c-32.5,0-64.9-6.7-95-19.4c-30-12.8-57.5-31.6-80.5-55.2c-23-23.5-41.3-51.8-53.8-82.6C258.3,331.4,251.9,298.1,251.9,264.8L251.9,264.8z"/></g>
</svg>