<?xml version="1.0" standalone="no"?>
<!DOCTYPE svg PUBLIC "-//W3C//DTD SVG 20010904//EN"
 "http://www.w3.org/TR/2001/REC-SVG-20010904/DTD/svg10.dtd">
<svg version="1.0" xmlns="http://www.w3.org/2000/svg"
 width="910.000000pt" height="309.000000pt" viewBox="0 0 910.000000 309.000000"
 preserveAspectRatio="xMidYMid meet">

<g transform="translate(0.000000,309.000000) scale(0.100000,-0.100000)"
fill="#000000" stroke="none">
<path d="M3115 2594 c-46 -24 -74 -54 -86 -93 -6 -24 -9 -320 -7 -878 3 -832
3 -842 24 -869 52 -70 117 -89 188 -55 78 38 80 47 86 285 l5 208 61 55 62 54
211 -290 c217 -296 232 -312 308 -327 38 -7 112 32 140 75 28 42 30 110 6 149
-10 15 -110 153 -223 307 -113 154 -209 285 -213 291 -4 7 63 76 165 170 209
194 228 218 228 290 0 48 -4 59 -36 94 -45 50 -97 66 -155 49 -32 -10 -94 -64
-297 -258 l-257 -244 -5 454 c-6 512 -2 489 -84 529 -51 24 -81 25 -121 4z"/>
<path d="M4382 2580 c-21 -13 -41 -38 -54 -67 -64 -144 62 -288 196 -223 61
29 86 71 86 145 0 67 -26 123 -70 148 -39 24 -117 22 -158 -3z"/>
<path d="M5120 2583 c-8 -3 -26 -15 -38 -27 -49 -44 -52 -61 -52 -294 l0 -220
-74 -4 c-56 -2 -82 -9 -103 -24 -37 -27 -73 -91 -73 -129 0 -37 36 -102 70
-127 17 -12 51 -20 103 -24 l77 -7 0 -336 c1 -399 7 -438 87 -552 92 -130 261
-184 459 -148 109 20 154 69 154 168 0 44 -5 56 -36 91 -44 48 -83 58 -175 42
-78 -13 -125 -4 -160 34 l-24 26 -3 337 -3 338 127 6 c139 6 158 13 202 77 34
50 30 108 -11 162 -42 56 -77 67 -209 67 l-108 1 0 224 c0 215 -1 224 -23 257
-12 19 -38 42 -57 51 -34 17 -98 22 -130 11z"/>
<path d="M6120 2583 c-8 -3 -26 -15 -38 -27 -49 -44 -52 -61 -52 -294 l0 -220
-74 -4 c-56 -2 -82 -9 -103 -24 -37 -27 -73 -91 -73 -129 0 -37 36 -102 70
-127 17 -12 51 -20 103 -24 l77 -7 0 -336 c1 -399 7 -438 87 -552 92 -130 261
-184 459 -148 109 20 154 69 154 168 0 44 -5 56 -36 91 -44 48 -83 58 -175 42
-78 -13 -125 -4 -160 34 l-24 26 -3 337 -3 338 127 6 c139 6 158 13 202 77 34
50 30 108 -11 162 -42 56 -77 67 -209 67 l-108 1 0 224 c0 215 -1 224 -23 257
-12 19 -38 42 -57 51 -34 17 -98 22 -130 11z"/>
<path d="M1943 2474 c-62 -30 -128 -93 -144 -139 -12 -32 -13 -32 -85 -38 -92
-7 -166 -39 -223 -98 -23 -24 -64 -66 -90 -94 -79 -81 -103 -152 -81 -233 13
-51 72 -120 118 -139 18 -7 35 -20 38 -28 8 -21 118 -92 154 -100 16 -4 30 -8
30 -9 0 -2 -18 -22 -40 -46 -60 -65 -82 -150 -55 -212 6 -14 2 -18 -17 -18
-14 0 -39 -5 -57 -11 -41 -14 -50 -5 -24 24 51 55 57 109 17 156 -51 61 -121
32 -212 -87 -58 -76 -138 -228 -148 -279 -3 -18 -10 -33 -14 -33 -13 0 -49 95
-71 187 -51 213 -7 413 128 586 62 79 69 132 25 177 -36 36 -71 39 -118 9 -36
-22 -105 -109 -153 -192 -70 -122 -120 -344 -106 -472 25 -232 114 -417 274
-567 176 -167 443 -257 674 -228 358 44 640 283 739 627 30 104 33 342 5 443
-56 201 -194 393 -362 503 -37 25 -43 35 -88 164 -27 76 -52 146 -55 155 -6
15 -12 14 -59 -8z m28 -122 c25 -78 91 -248 102 -260 6 -8 20 -11 33 -8 17 5
38 -9 99 -66 66 -62 164 -184 153 -192 -1 -2 -36 -20 -75 -41 -104 -54 -163
-108 -163 -149 0 -56 35 -79 133 -84 45 -2 107 1 137 6 40 7 57 7 62 -1 4 -7
8 -44 8 -83 l0 -70 -72 9 c-132 16 -257 -4 -302 -49 -68 -69 7 -151 205 -226
49 -18 89 -38 89 -44 0 -10 -76 -134 -83 -134 -1 0 -20 9 -42 20 -52 27 -124
26 -158 0 -47 -37 -44 -114 5 -167 l20 -21 -24 -16 c-156 -102 -405 -144 -598
-101 -82 19 -214 76 -282 123 -149 102 -269 282 -315 470 -22 91 -21 265 1
357 36 144 171 370 221 370 34 0 28 -32 -21 -97 -125 -170 -179 -357 -154
-537 25 -181 93 -337 188 -434 115 -117 311 -155 472 -91 39 16 39 16 24 45
-16 32 -21 34 -61 18 -122 -47 -273 -23 -372 60 l-34 28 12 64 c19 111 144
335 214 384 19 13 23 13 36 0 13 -13 12 -18 -7 -42 -13 -16 -34 -53 -48 -83
-14 -30 -44 -85 -66 -123 -44 -76 -47 -112 -9 -112 17 0 33 13 56 45 81 116
231 158 360 101 103 -45 164 -137 174 -261 6 -69 8 -75 30 -78 31 -5 41 12 41
69 0 97 -61 227 -134 282 -29 23 -34 33 -40 89 -5 53 -3 65 11 76 25 18 57 15
83 -8 28 -24 34 -25 54 -4 32 31 -32 94 -96 94 -51 0 -84 -18 -135 -74 -44
-48 -63 -55 -83 -31 -27 32 33 131 103 167 30 16 60 22 102 22 70 0 111 -18
168 -75 32 -33 41 -37 57 -29 11 6 20 18 20 27 0 43 -94 122 -165 139 -16 3
-39 15 -50 25 -17 15 -27 16 -65 8 -89 -20 -193 13 -262 84 -21 22 -52 47 -70
56 -44 22 -69 61 -75 114 -5 39 -2 49 20 71 18 18 37 26 60 26 48 0 65 22 42
56 -16 25 -16 27 12 61 42 53 121 94 193 100 l60 6 0 -40 c0 -47 22 -73 48
-56 12 7 19 31 23 81 7 76 31 126 76 162 31 24 38 20 54 -28z"/>
<path d="M1606 2094 c-23 -23 -4 -54 34 -54 19 0 34 -8 47 -26 15 -20 25 -25
41 -20 57 18 -4 116 -72 116 -19 0 -42 -7 -50 -16z"/>
<path d="M1564 1925 c-4 -9 -2 -21 3 -26 17 -17 240 -87 253 -79 29 18 -4 40
-112 75 -62 21 -119 40 -125 43 -7 2 -16 -3 -19 -13z"/>
<path d="M1567 1853 c-17 -16 -1 -34 73 -83 84 -55 112 -65 118 -39 2 10 -26
35 -83 72 -86 58 -96 62 -108 50z"/>
<path d="M4410 2043 c-26 -10 -61 -47 -81 -86 -19 -36 -19 -61 -17 -606 3
-557 3 -570 24 -597 52 -70 117 -89 188 -54 26 12 54 36 66 54 20 33 20 47 20
612 l0 579 -26 39 c-37 54 -115 81 -174 59z"/>
<path d="M6960 2032 c-19 -10 -44 -31 -55 -46 -19 -27 -20 -41 -20 -399 1
-352 2 -376 23 -451 63 -226 189 -369 377 -429 109 -35 268 -27 354 18 l31 16
0 -64 c0 -72 -20 -149 -46 -178 -27 -30 -88 -41 -216 -40 -138 0 -220 13 -295
47 -68 29 -102 30 -154 4 -58 -30 -81 -72 -76 -138 5 -69 27 -98 113 -144 115
-62 205 -82 369 -80 361 3 510 91 586 342 23 74 23 81 27 758 3 765 7 729 -69
779 -33 21 -47 25 -90 21 -57 -6 -95 -30 -124 -79 -19 -32 -20 -57 -25 -446
l-5 -412 -30 -32 c-16 -17 -57 -44 -90 -60 -146 -70 -269 -12 -331 156 -16 44
-19 94 -24 412 -5 345 -6 363 -26 389 -51 69 -137 93 -204 56z"/>
</g>
</svg>
